<svg width="354.251" height="78.029" viewBox="0 0 354.251 78.029" xmlns="http://www.w3.org/2000/svg"><g id="svgGroup" stroke-linecap="round" fill-rule="evenodd" font-size="9pt" stroke="#000" stroke-width="0.25mm" fill="#dfed81" style="stroke:#000;stroke-width:0.25mm;fill:#dfed81"><path d="M 38.332 49.318 L 38.332 57.814 A 32.98 32.98 0 0 1 32.367 57.31 Q 29.08 56.704 26.507 55.372 A 15.68 15.68 0 0 1 22.707 52.638 A 14.407 14.407 0 0 1 18.322 42.407 A 19.025 19.025 0 0 1 18.312 41.798 Q 18.312 33.79 24.855 27.98 Q 26.711 26.32 28.664 24.855 L 32.472 22.12 Q 37.508 18.626 38.697 15.391 A 5.718 5.718 0 0 0 39.064 13.478 L 39.064 8.986 A 20.191 20.191 0 0 0 37.559 8.757 A 25.657 25.657 0 0 0 36.281 8.644 L 33.693 8.546 A 22.515 22.515 0 0 0 18.904 14.672 A 31.108 31.108 0 0 0 16.554 17.042 A 29.435 29.435 0 0 0 11.044 26.085 A 37.491 37.491 0 0 0 9.572 30.714 Q 8.691 34.239 8.567 38.9 A 58.547 58.547 0 0 0 8.547 40.455 A 34.284 34.284 0 0 0 10.304 51.368 A 26.26 26.26 0 0 0 13.07 57.308 A 22.846 22.846 0 0 0 15.334 60.304 A 22.545 22.545 0 0 0 27.477 67.2 A 33.941 33.941 0 0 0 34.767 67.97 A 30.843 30.843 0 0 0 34.885 67.97 Q 46.402 67.97 54.572 59.343 A 35.703 35.703 0 0 0 56.301 57.374 A 33.751 33.751 0 0 0 58.901 53.779 Q 60.161 51.754 60.939 49.757 L 68.849 52.882 Q 65.578 61.085 57.961 67.824 Q 48.097 76.515 34.767 76.515 A 44.869 44.869 0 0 1 24.168 75.337 A 29.303 29.303 0 0 1 8.107 65.577 A 33.593 33.593 0 0 1 1.498 52.31 Q 0.212 47.326 0.031 41.45 A 63.293 63.293 0 0 1 0.002 39.503 A 50.102 50.102 0 0 1 1.581 26.6 A 37.224 37.224 0 0 1 10.353 10.548 A 34.171 34.171 0 0 1 19.92 3.201 A 30.07 30.07 0 0 1 33.693 0.001 A 29.919 29.919 0 0 1 44.582 2.003 Q 46.437 2.736 47.756 3.81 A 28.107 28.107 0 0 0 48.71 6.92 Q 49.891 10.044 51.532 11.388 A 4.226 4.226 0 0 0 54.274 12.404 A 4.291 4.291 0 0 0 57.574 10.79 Q 59.463 8.648 60.549 3.663 L 68.898 5.275 Q 66.261 17.433 58.84 20.167 Q 56.594 20.949 54.347 20.949 A 8.6 8.6 0 0 1 47.795 18.145 A 10.993 10.993 0 0 1 47.072 17.286 Q 46.437 22.12 41.164 26.417 A 53.317 53.317 0 0 1 36.379 29.933 A 55.642 55.642 0 0 0 31.789 33.302 A 18.774 18.774 0 0 0 29.37 35.678 Q 26.892 38.639 26.857 41.798 A 6.132 6.132 0 0 0 29.59 47.058 Q 30.925 48.009 32.912 48.634 A 13.624 13.624 0 0 0 34.866 49.077 Q 35.885 49.235 37.059 49.289 A 27.537 27.537 0 0 0 38.332 49.318 Z M 333.449 16.456 L 324.513 16.456 Q 325.588 11.281 329.689 7.96 A 14.45 14.45 0 0 1 339.061 4.59 A 16.321 16.321 0 0 1 339.211 4.591 Q 345.461 4.591 349.855 8.986 A 14.478 14.478 0 0 1 354.249 19.435 A 17.657 17.657 0 0 1 354.25 19.63 A 15.195 15.195 0 0 1 353.035 25.797 Q 351.619 29.025 348.554 31.403 A 18.468 18.468 0 0 1 347.902 31.886 A 15.859 15.859 0 0 1 343.703 33.986 Q 349.855 39.894 351.906 47.511 Q 352.568 49.971 352.612 53.141 A 32.323 32.323 0 0 1 352.614 53.346 A 15.633 15.633 0 0 1 352.614 53.462 Q 352.614 56.698 351.281 60.472 A 29.772 29.772 0 0 1 351.271 60.499 A 26.282 26.282 0 0 1 347.219 67.775 A 29.816 29.816 0 0 1 335.618 76.563 A 37.876 37.876 0 0 1 331.838 77.98 L 324.416 70.607 Q 316.701 62.892 316.701 56.984 A 10.902 10.902 0 0 1 317.731 52.459 Q 318.669 50.387 320.461 48.292 L 325.832 54.445 A 7.021 7.021 0 0 0 325.407 55.104 Q 325.008 55.815 324.959 56.389 A 1.854 1.854 0 0 0 324.953 56.544 A 3.469 3.469 0 0 0 325.089 57.483 Q 325.217 57.939 325.466 58.424 A 13.185 13.185 0 0 0 326.058 59.456 Q 326.383 59.97 326.782 60.513 A 21.262 21.262 0 0 0 326.808 60.548 A 20.148 20.148 0 0 0 327.839 61.899 A 25.241 25.241 0 0 0 328.664 62.843 L 333.84 68.361 A 21.459 21.459 0 0 0 339.518 64.08 A 18.363 18.363 0 0 0 343.605 57.032 A 16.647 16.647 0 0 0 344.308 52.606 A 18.586 18.586 0 0 0 344.313 52.296 A 10.161 10.161 0 0 0 344.314 52.197 Q 344.314 49.755 343.141 47.242 A 16.678 16.678 0 0 0 341.726 44.76 A 13.14 13.14 0 0 0 340.236 42.97 L 328.517 51.808 L 313.576 33.449 L 330.08 18.751 L 333.498 22.95 A 11.492 11.492 0 0 0 335.106 24.605 Q 336.176 25.489 337.318 25.89 A 5.822 5.822 0 0 0 339.26 26.222 A 6.617 6.617 0 0 0 342.156 25.595 A 6.587 6.587 0 0 0 343.971 24.293 A 6.344 6.344 0 0 0 345.9 19.715 A 7.701 7.701 0 0 0 345.9 19.63 A 6.617 6.617 0 0 0 345.273 16.733 A 6.587 6.587 0 0 0 343.971 14.918 A 6.399 6.399 0 0 0 339.346 12.99 A 7.977 7.977 0 0 0 339.26 12.99 Q 335.304 12.99 333.449 16.456 Z M 148.293 71.339 L 143.263 77.931 Q 135.5 71.925 134.035 65.724 Q 133.547 63.722 133.571 61.183 A 65.095 65.095 0 0 1 133.756 56.928 A 73.184 73.184 0 0 1 133.84 55.909 A 137.083 137.083 0 0 1 134.328 50.538 A 199.732 199.732 0 0 0 134.688 46.416 Q 135.011 42.18 135.011 39.259 Q 135.011 33.693 131.252 27.98 L 122.609 34.767 L 122.609 76.515 L 114.26 76.515 L 114.26 30.616 A 5.932 5.932 0 0 0 113.523 27.826 Q 112.662 26.194 110.793 24.562 A 17.632 17.632 0 0 0 109.459 23.54 A 15.186 15.186 0 0 0 108.937 23.195 L 113.527 16.212 A 31.594 31.594 0 0 1 117.008 18.82 Q 118.659 20.261 119.796 21.756 A 12.972 12.972 0 0 1 121.633 25.001 L 132.57 16.456 Q 139.992 24.757 142.433 33.253 A 21.565 21.565 0 0 1 143.309 38.887 A 20.222 20.222 0 0 1 143.312 39.259 Q 143.312 41.71 143.081 44.876 A 131.76 131.76 0 0 1 142.824 47.902 Q 141.945 57.863 141.945 61.622 A 8.517 8.517 0 0 0 143.149 65.866 Q 144.71 68.611 148.293 71.339 Z M 280.422 67.726 L 267.238 77.98 Q 254.336 74.254 253.438 63.09 A 21.352 21.352 0 0 1 253.371 61.378 L 253.371 39.943 A 42.645 42.645 0 0 1 253.369 39.565 Q 253.369 34.716 254.501 32.012 A 8.616 8.616 0 0 1 254.689 31.593 A 19.273 19.273 0 0 1 261.183 23.781 L 271.633 16.456 L 281.447 35.109 L 274.66 39.161 L 268.849 28.517 L 265.969 30.568 A 10.127 10.127 0 0 0 261.877 37.358 A 15.522 15.522 0 0 0 261.672 39.943 L 261.672 61.378 A 10.127 10.127 0 0 0 262.057 64.262 A 7.082 7.082 0 0 0 265.627 68.605 L 275.539 60.89 L 280.422 67.726 Z M 159.474 60.939 L 159.474 30.128 A 4.537 4.537 0 0 0 158.069 30.381 Q 156.745 30.816 155.021 32.001 A 27.955 27.955 0 0 0 153.469 33.156 L 152.297 34.132 L 148 27.491 L 150.734 25.538 A 25.321 25.321 0 0 1 153.867 23.581 Q 155.656 22.65 157.347 22.213 A 11.609 11.609 0 0 1 160.256 21.827 L 164.601 6.788 L 172.609 8.937 L 168.898 21.827 L 177.638 21.827 L 177.638 30.128 L 167.726 30.128 L 167.726 48.243 A 2318.886 2318.886 0 0 0 167.732 53.645 A 1919.759 1919.759 0 0 0 167.751 58.717 Q 167.774 63.382 169.099 65.951 A 7.63 7.63 0 0 0 169.24 66.212 Q 170.418 68.293 172.858 70.247 A 24.478 24.478 0 0 0 174.123 71.193 L 169.386 77.98 Q 163.402 74.198 161.089 69.313 A 14.979 14.979 0 0 1 159.963 65.968 A 23.343 23.343 0 0 1 159.522 62.584 A 27.852 27.852 0 0 1 159.474 60.939 Z M 292.775 60.939 L 292.775 30.128 A 4.537 4.537 0 0 0 291.37 30.381 Q 290.046 30.816 288.322 32.001 A 27.955 27.955 0 0 0 286.769 33.156 L 285.597 34.132 L 281.301 27.491 L 284.035 25.538 A 25.321 25.321 0 0 1 287.168 23.581 Q 288.957 22.65 290.648 22.213 A 11.609 11.609 0 0 1 293.556 21.827 L 297.902 6.788 L 305.91 8.937 L 302.199 21.827 L 310.939 21.827 L 310.939 30.128 L 301.027 30.128 L 301.027 48.243 A 2318.886 2318.886 0 0 0 301.033 53.645 A 1919.759 1919.759 0 0 0 301.052 58.717 Q 301.075 63.382 302.399 65.951 A 7.63 7.63 0 0 0 302.541 66.212 Q 303.718 68.293 306.159 70.247 A 24.478 24.478 0 0 0 307.424 71.193 L 302.687 77.98 Q 296.703 74.198 294.39 69.313 A 14.979 14.979 0 0 1 293.263 65.968 A 23.343 23.343 0 0 1 292.823 62.584 A 27.852 27.852 0 0 1 292.775 60.939 Z M 180.617 23.439 L 185.158 16.456 A 31.798 31.798 0 0 1 188.073 18.459 Q 189.456 19.536 190.477 20.635 A 12.644 12.644 0 0 1 192.238 22.999 L 200.539 16.456 A 37.143 37.143 0 0 1 207.229 25.099 A 50.243 50.243 0 0 1 210.695 32.618 L 203.322 36.866 A 32.129 32.129 0 0 0 201.543 32.879 A 24.032 24.032 0 0 0 199.367 29.493 L 194.24 33.546 L 194.24 76.515 L 185.939 76.515 L 185.939 30.861 A 6.203 6.203 0 0 0 184.921 27.541 Q 183.611 25.444 180.617 23.439 Z M 248.244 71.193 L 243.508 77.98 A 27.48 27.48 0 0 1 239.738 75.215 Q 237.768 73.476 236.459 71.521 A 16.106 16.106 0 0 1 235.89 70.607 L 226.027 77.98 A 19.762 19.762 0 0 1 221.6 76.675 A 12.328 12.328 0 0 1 215.285 70.851 A 9.55 9.55 0 0 1 214.41 68.059 A 12.709 12.709 0 0 1 214.26 66.066 L 214.26 43.361 A 21.634 21.634 0 0 1 215.227 36.723 A 17.042 17.042 0 0 1 221.437 28.126 L 236.867 16.456 L 241.896 19.044 L 241.896 59.865 A 16.049 16.049 0 0 0 242.138 62.726 Q 242.444 64.417 243.139 65.797 A 9.673 9.673 0 0 0 243.361 66.212 Q 244.539 68.293 246.979 70.247 A 24.478 24.478 0 0 0 248.244 71.193 Z M 81.301 78.029 L 75.588 75.148 L 75.588 37.648 A 18.893 18.893 0 0 1 76.355 32.115 A 14.236 14.236 0 0 1 81.594 24.708 L 92.531 16.407 A 58.607 58.607 0 0 1 95.028 18.198 Q 97.715 20.243 99.123 21.925 Q 103.176 26.808 103.176 31.837 L 103.176 54.445 A 13.799 13.799 0 0 1 98.577 64.987 A 18.341 18.341 0 0 1 97.17 66.163 L 81.301 78.029 Z M 222.56 43.361 L 222.56 66.066 A 3.624 3.624 0 0 0 222.741 67.242 Q 223.091 68.269 224.123 68.849 L 233.595 61.769 L 233.595 29.152 L 226.76 34.474 A 10.473 10.473 0 0 0 222.614 42.118 A 14.022 14.022 0 0 0 222.56 43.361 Z M 92.58 26.71 L 86.525 31.398 A 6.754 6.754 0 0 0 84.127 35.337 A 10.55 10.55 0 0 0 83.888 37.648 L 83.888 65.822 L 92.287 59.718 A 5.945 5.945 0 0 0 94.823 55.378 A 8.225 8.225 0 0 0 94.875 54.445 L 94.875 31.837 Q 94.875 29.005 92.58 26.71 Z M 329.885 40.577 L 337.892 34.62 A 15.065 15.065 0 0 1 328.957 30.665 L 324.904 33.986 L 329.885 40.577 Z" vector-effect="non-scaling-stroke"/></g></svg>